#!OML:ASF G:\JayActor3\Patient Classification 1\Patient 1\Session 5\male.ASF
:FULLY-SPECIFIED
:DEGREES
954
root 38.6688 14.2178 -5.61767 352.21 88.3954 339.091
lowerback 30.8543 -1.95831 2.16761
upperback 6.65052 -1.23389 -0.36261
thorax -9.47411 -0.370216 -1.24442
lowerneck -7.42983 0.0922656 1.42521
upperneck -5.99863 0.192997 0.311997
head -0.619281 0.137838 -0.133371
rclavicle 2.96189e-014 1.41137e-014
rhumerus -22.785 3.66604 -85.675
rradius 43.2645
rwrist -4.47876
rhand -21.1896 -7.59961
rfingers 7.12502
rthumb 5.19127 -37.516
lclavicle 2.96189e-014 1.41137e-014
lhumerus -23.8495 -7.61409 82.9459
lradius 43.4124
lwrist 24.9715
lhand -18.2215 11.1261
lfingers 7.12502
lthumb 8.05656 40.9525
rfemur -74.5261 -1.66544 23.1592
rtibia 59.7524
rfoot -21.5817 -12.921
rtoes -10.3945
lfemur -48.432 4.05595 -27.3286
ltibia 72.5653
lfoot -31.952 15.1678
ltoes -13.5209
955
root 38.7885 14.2308 -5.61073 353.171 88.4791 339.929
lowerback 30.7489 -1.96168 2.14624
upperback 6.64162 -1.24995 -0.36133
thorax -9.43362 -0.378064 -1.22527
lowerneck -7.41762 0.0802618 1.4309
upperneck -6.0659 0.178828 0.309205
head -0.641823 0.130947 -0.135486
rclavicle -6.55989e-015 -5.56597e-015
rhumerus -22.8712 3.63006 -85.6749
rradius 43.1892
rwrist -4.4348
rhand -21.1843 -7.57641
rfingers 7.12502
rthumb 5.19641 -37.4927
lclavicle -6.55989e-015 -5.56597e-015
lhumerus -23.8553 -7.63266 82.9772
lradius 43.4282
lwrist 24.9828
lhand -18.2099 11.1049
lfingers 7.12502
lthumb 8.06774 40.9309
rfemur -74.0831 -1.32266 22.7147
rtibia 57.1796
rfoot -21.6435 -13.0708
rtoes -10.6561
lfemur -48.0125 4.19619 -27.3466
ltibia 72.5415
lfoot -32.0513 15.037
ltoes -14.2201
956
root 38.9093 14.2411 -5.60213 354.146 88.5765 340.806
lowerback 30.6624 -1.96751 2.12449
upperback 6.63984 -1.26758 -0.360596
thorax -9.39411 -0.386078 -1.20591
lowerneck -7.40287 0.0660758 1.4318
upperneck -6.12298 0.161891 0.312023
head -0.661688 0.12267 -0.135152
rclavicle -1.26228e-014 -7.95139e-015
rhumerus -22.9473 3.59509 -85.6721
rradius 43.094
rwrist -4.37844
rhand -21.1889 -7.52251
rfingers 7.12502
rthumb 5.19192 -37.4389
lclavicle -1.26228e-014 -7.95139e-015
lhumerus -23.8566 -7.66279 83.0082
lradius 43.4429
lwrist 24.9911
lhand -18.1949 11.0864
lfingers 7.12502
lthumb 8.08226 40.9118
rfemur -73.6031 -0.952824 22.1997
rtibia 54.8188
rfoot -21.6838 -13.1849
rtoes -10.8443
lfemur -47.5952 4.34009 -27.3551
ltibia 72.5756
lfoot -32.1431 14.8737
ltoes -14.9048
957
root 39.0316 14.2484 -5.59172 355.251 88.6871 341.84
lowerback 30.5909 -1.97531 2.10154
upperback 6.64582 -1.28676 -0.362299
thorax -9.35302 -0.394235 -1.18805
lowerneck -7.38576 0.0497375 1.43384
upperneck -6.16391 0.141416 0.314629
head -0.677025 0.112465 -0.135091
rclavicle -8.84592e-015 -4.37326e-015
rhumerus -23.0123 3.55751 -85.669
rradius 42.9777
rwrist -4.31062
rhand -21.1994 -7.43402
rfingers 7.12502
rthumb 5.18181 -37.3507
lclavicle -8.84592e-015 -4.37326e-015
lhumerus -23.8538 -7.70343 83.0365
lradius 43.4569
lwrist 24.9948
lhand -18.1763 11.0851
lfingers 7.12502
lthumb 8.10019 40.9098
rfemur -73.1014 -0.558194 21.6247
rtibia 52.7214
rfoot -21.695 -13.2672
rtoes -10.9006
lfemur -47.1861 4.48894 -27.3555
ltibia 72.6795
lfoot -32.2312 14.6854
ltoes -15.6112
958
root 39.1554 14.2525 -5.57949 356.007 88.8106 342.55
lowerback 30.5363 -1.98627 2.08588
upperback 6.65649 -1.306 -0.361483
thorax -9.31474 -0.40216 -1.17148
lowerneck -7.36185 0.0299795 1.4306
upperneck -6.18996 0.116419 0.324651
head -0.68892 0.0999201 -0.131968
rclavicle -8.64713e-015 -5.26779e-015
rhumerus -23.0699 3.51711 -85.6635
rradius 42.8425
rwrist -4.22795
rhand -21.2115 -7.32376
rfingers 7.12502
rthumb 5.17018 -37.2407
lclavicle -8.64713e-015 -5.26779e-015
lhumerus -23.853 -7.74967 83.0653
lradius 43.4722
lwrist 24.9973
lhand -18.1566 11.0976
lfingers 7.12502
lthumb 8.11922 40.9216
rfemur -72.5932 -0.146262 21.0205
rtibia 50.9316
rfoot -21.65 -13.3368
rtoes -10.8385
lfemur -46.791 4.64618 -27.3345
ltibia 72.86
lfoot -32.3115 14.4595
ltoes -16.3237
959
root 39.2812 14.253 -5.56547 356.332 88.9503 342.855
lowerback 30.4939 -2.00291 2.07919
upperback 6.67202 -1.32831 -0.358947
thorax -9.27708 -0.411287 -1.157
lowerneck -7.33008 0.00757457 1.417
upperneck -6.19855 0.0883655 0.347607
head -0.696739 0.085838 -0.123261
rclavicle -1.21259e-014 3.97569e-016
rhumerus -23.1219 3.47808 -85.6581
rradius 42.6939
rwrist -4.13319
rhand -21.2122 -7.22237
rfingers 7.12502
rthumb 5.1695 -37.1393
lclavicle -1.21259e-014 3.97569e-016
lhumerus -23.853 -7.79746 83.0917
lradius 43.4822
lwrist 24.9971
lhand -18.1378 11.1082
lfingers 7.12502
lthumb 8.13735 40.9315
rfemur -72.0934 0.269583 20.4096
rtibia 49.4903
rfoot -21.5406 -13.4063
rtoes -10.6807
lfemur -46.4084 4.80703 -27.293
ltibia 73.1186
lfoot -32.3771 14.2156
ltoes -17.0676
960
root 39.409 14.2496 -5.54978 355.752 89.1042 342.278
lowerback 30.46 -2.02383 2.08673
upperback 6.69041 -1.35044 -0.352516
thorax -9.2405 -0.420338 -1.14641
lowerneck -7.29846 -0.0201984 1.39341
upperneck -6.18251 0.053321 0.383891
head -0.697015 0.0682559 -0.108954
rclavicle 5.36719e-015 1.87852e-014
rhumerus -23.1677 3.4324 -85.6503
rradius 42.5318
rwrist -4.03227
rhand -21.2014 -7.14079
rfingers 7.12502
rthumb 5.17984 -37.0575
lclavicle 5.36719e-015 1.87852e-014
lhumerus -23.8581 -7.84457 83.1205
lradius 43.4911
lwrist 24.9948
lhand -18.1234 11.1249
lfingers 7.12502
lthumb 8.15124 40.9476
rfemur -71.6109 0.676107 19.827
rtibia 48.4215
rfoot -21.3577 -13.4822
rtoes -10.4395
lfemur -46.0384 4.97147 -27.2251
ltibia 73.4527
lfoot -32.4291 13.9602
ltoes -17.8374
